HIERARCHY
ROOT Hips
{
	OFFSET 56.877701 -32.693596 43.373703
	CHANNELS 6 Xposition Yposition Zposition Zrotation Xrotation Yrotation
	JOINT Chest
	{
		OFFSET -0.779999 1.005800 5.403099
		CHANNELS 6 Xposition Yposition Zposition Zrotation Xrotation Yrotation
		JOINT Chest2
		{
			OFFSET 0.000000 0.000000 4.236801
			CHANNELS 6 Xposition Yposition Zposition Zrotation Xrotation Yrotation
			JOINT Neck
			{
				OFFSET 0.000000 0.000000 9.874401
				CHANNELS 6 Xposition Yposition Zposition Zrotation Xrotation Yrotation
				JOINT Head
				{
					OFFSET 0.000000 0.000002 2.173893
					CHANNELS 6 Xposition Yposition Zposition Zrotation Xrotation Yrotation
					End Site
					{
						OFFSET 0.000000 0.000000 6.508102
					}
				}
			}
			JOINT LeftCollar
			{
				OFFSET 2.681599 -0.377600 5.432499
				CHANNELS 6 Xposition Yposition Zposition Zrotation Xrotation Yrotation
				JOINT LeftShoulder
				{
					OFFSET 5.161499 0.000000 0.000000
					CHANNELS 6 Xposition Yposition Zposition Zrotation Xrotation Yrotation
					JOINT LeftElbow
					{
						OFFSET 0.000000 0.000000 -10.869099
						CHANNELS 6 Xposition Yposition Zposition Zrotation Xrotation Yrotation
						JOINT LeftWrist
						{
							OFFSET 0.000000 0.000000 -13.344799
							CHANNELS 6 Xposition Yposition Zposition Zrotation Xrotation Yrotation
							End Site
							{
								OFFSET 0.000000 0.000000 -2.173901
							}
						}
					}
				}
			}
			JOINT RightCollar
			{
				OFFSET -2.381901 -1.419600 6.136600
				CHANNELS 6 Xposition Yposition Zposition Zrotation Xrotation Yrotation
				JOINT RightShoulder
				{
					OFFSET -4.550499 0.000000 0.000000
					CHANNELS 6 Xposition Yposition Zposition Zrotation Xrotation Yrotation
					JOINT RightElbow
					{
						OFFSET 0.000000 0.000000 -11.106499
						CHANNELS 6 Xposition Yposition Zposition Zrotation Xrotation Yrotation
						JOINT RightWrist
						{
							OFFSET 0.000000 0.000000 -12.874298
							CHANNELS 6 Xposition Yposition Zposition Zrotation Xrotation Yrotation
							End Site
							{
								OFFSET 0.000000 0.000000 -2.173901
							}
						}
					}
				}
			}
		}
	}
	JOINT LeftHip
	{
		OFFSET 2.431900 0.469601 -2.489399
		CHANNELS 6 Xposition Yposition Zposition Zrotation Xrotation Yrotation
		JOINT LeftKnee
		{
			OFFSET 0.000000 -0.000004 -18.200201
			CHANNELS 6 Xposition Yposition Zposition Zrotation Xrotation Yrotation
			JOINT LeftAnkle
			{
				OFFSET 0.000000 0.000000 -16.279900
				CHANNELS 6 Xposition Yposition Zposition Zrotation Xrotation Yrotation
				End Site
				{
					OFFSET 0.000000 -8.394100 0.000000
				}
			}
		}
	}
	JOINT RightHip
	{
		OFFSET -1.987999 -0.073502 -2.713001
		CHANNELS 6 Xposition Yposition Zposition Zrotation Xrotation Yrotation
		JOINT RightKnee
		{
			OFFSET 0.000000 -0.000004 -19.547802
			CHANNELS 6 Xposition Yposition Zposition Zrotation Xrotation Yrotation
			JOINT RightAnkle
			{
				OFFSET 0.000000 0.000000 -14.881199
				CHANNELS 6 Xposition Yposition Zposition Zrotation Xrotation Yrotation
				End Site
				{
					OFFSET 0.000000 -7.922699 0.000000
				}
			}
		}
	}
}
MOTION
Frames: 7
Frame Time: 0.041667
-40.912804 -54.269096 42.414608 4571.544622 3.747509 1.104940 -0.779997 1.005800 5.403097 -30.974973 2.353814 8.641817 0.000001 -0.000002 4.236804 4.494158 -4.981161 -0.650831 0.000006 -0.000002 9.874401 41.784109 -5.471193 -11.623511 0.000003 0.000006 2.173895 2.808015 3.996872 6.612970 2.681605 -0.377604 5.432500 -27.375163 12.306472 6.207585 5.161498 0.000002 0.000010 188.921871 -108.900413 126.217251 -0.000012 0.000004 -10.869096 -118.073726 -28.099762 -133.024641 0.000000 0.000004 -13.344795 -7.885538 -1.160053 24.046764 -2.381896 -1.419605 6.136592 -12.691677 -12.321695 20.538341 -4.550503 -0.000003 0.000002 -1211.241377 -500.073775 -386.022840 0.000008 -0.000002 -11.106503 705.837486 -33.869624 710.416937 0.000006 0.000002 -12.874290 -309.286484 21.178552 -58.638670 2.431902 0.469601 -2.489385 -338.740882 -27.661435 2.817419 0.000000 0.000002 -18.200203 332.190321 52.106581 27.531051 -0.000001 0.000004 -16.279900 13.220493 17.964214 -8.863821 -1.987999 -0.073500 -2.712996 -102.844180 -43.687222 -114.643277 -0.000000 0.000006 -19.547804 -1440.593338 147.242104 -328.946664 -0.000001 0.000004 -14.881197 2029.042439 107.565931 -605.203282
-40.921097 -54.282196 42.420200 4571.628551 3.710657 1.080076 -0.780000 1.005800 5.403093 -31.025356 2.351196 8.676221 0.000006 -0.000001 4.236805 4.485066 -4.998829 -0.654300 -0.000005 0.000001 9.874399 41.575508 -5.408275 -11.481613 -0.000006 0.000001 2.173901 2.974958 4.019332 6.635508 2.681596 -0.377603 5.432504 -27.428324 12.383328 6.267021 5.161493 0.000006 -0.000007 188.820388 -108.893139 126.077492 -0.000005 -0.000010 -10.869098 -117.594015 -27.658935 -132.937802 -0.000008 0.000010 -13.344796 -7.014187 -1.102108 24.197810 -2.381906 -1.419604 6.136595 -12.713966 -12.282891 20.513971 -4.550512 0.000000 0.000008 -1211.114390 -500.033505 -385.912027 0.000006 0.000001 -11.106503 705.502042 -33.795387 710.181705 -0.000001 0.000002 -12.874290 -308.996447 21.252899 -58.436039 2.431900 0.469603 -2.489405 -338.988845 -27.536184 2.732788 -0.000003 -0.000010 -18.200209 332.479976 51.926076 27.430549 -0.000004 0.000000 -16.279900 13.377120 18.163934 -9.212382 -1.988001 -0.073501 -2.713011 -102.877293 -43.719416 -114.532983 -0.000003 -0.000007 -19.547802 -1440.764584 147.336784 -328.811126 -0.000001 0.000002 -14.881195 2028.893595 107.710191 -605.437039
-40.928902 -54.299393 42.426308 4571.701989 3.682028 1.034372 -0.780001 1.005802 5.403089 -31.077689 2.341128 8.721220 0.000003 -0.000005 4.236805 4.483663 -5.010524 -0.656588 -0.000003 0.000002 9.874403 41.455724 -5.363821 -11.343479 0.000000 0.000007 2.173895 3.146921 4.068273 6.617913 2.681591 -0.377602 5.432504 -27.407394 12.416036 6.218430 5.161504 0.000004 -0.000001 190.678651 -108.102668 127.859529 -0.000007 0.000000 -10.869097 -118.311362 -27.442918 -132.892327 -0.000000 0.000006 -13.344797 -6.595136 -0.910216 24.003600 -2.381909 -1.419604 6.136598 -12.680702 -12.211154 20.412148 -4.550503 -0.000001 0.000011 -1211.050569 -500.076507 -385.703351 0.000004 0.000001 -11.106498 704.999668 -33.679550 709.897241 -0.000006 0.000007 -12.874290 -308.633026 21.203233 -58.312808 2.431902 0.469603 -2.489399 -339.110833 -27.448961 2.748234 0.000002 -0.000006 -18.200203 332.545491 51.861302 27.409424 -0.000003 0.000001 -16.279898 13.341811 18.190886 -9.197434 -1.988005 -0.073502 -2.713013 -102.864876 -43.775427 -114.462366 -0.000005 0.000002 -19.547791 -1440.712565 147.358681 -328.809022 0.000003 0.000008 -14.881196 2028.858188 107.786368 -605.450863
-40.935905 -54.315895 42.431705 4571.766248 3.640537 1.005284 -0.779988 1.005815 5.403095 -31.217240 2.348702 8.730369 -0.000010 -0.000001 4.236795 4.578582 -5.010307 -0.657098 0.000000 0.000009 9.874399 41.411232 -5.343598 -11.234743 0.000002 0.000005 2.173885 3.233989 4.061403 6.639816 2.681592 -0.377599 5.432511 -27.322614 12.322237 6.077327 5.161505 0.000000 0.000005 192.272516 -107.721085 129.503119 -0.000003 -0.000009 -10.869100 -118.990296 -27.420903 -132.935863 0.000003 -0.000003 -13.344802 -6.671878 -0.800478 23.851979 -2.381904 -1.419587 6.136600 -12.669190 -12.176684 20.465250 -4.550499 -0.000008 -0.000002 -1210.946969 -499.987551 -385.574342 -0.000004 0.000000 -11.106504 704.721324 -33.589566 709.688729 -0.000010 0.000006 -12.874301 -308.330148 21.179455 -58.111256 2.431909 0.469612 -2.489390 -339.239240 -27.326986 2.779382 0.000004 -0.000009 -18.200199 332.542650 51.760212 27.384718 -0.000002 0.000000 -16.279900 13.457922 18.218609 -9.257638 -1.987990 -0.073490 -2.713004 -102.820534 -43.832818 -114.383566 -0.000011 -0.000003 -19.547787 -1440.598802 147.314176 -328.853828 0.000001 0.000010 -14.881198 2028.882667 107.797454 -605.380758
-40.942009 -54.331696 42.435509 4571.813895 3.596033 1.008326 -0.779992 1.005806 5.403102 -31.274142 2.394223 8.732912 -0.000005 0.000000 4.236795 4.602865 -5.017773 -0.658188 0.000004 -0.000002 9.874392 41.454143 -5.337023 -11.259885 -0.000004 0.000006 2.173896 3.231563 4.067377 6.667987 2.681598 -0.377605 5.432504 -27.151443 12.214125 5.880048 5.161496 0.000000 0.000006 191.828909 -108.207163 129.348811 -0.000002 -0.000004 -10.869095 -118.840852 -27.528415 -133.068641 -0.000000 0.000012 -13.344804 -7.022146 -0.795730 23.858218 -2.381901 -1.419599 6.136596 -12.679359 -12.239666 20.482096 -4.550508 -0.000005 0.000002 -1210.949373 -499.990994 -385.590844 0.000001 -0.000006 -11.106483 704.725750 -33.580062 709.646000 0.000004 0.000002 -12.874293 -308.387003 21.145337 -58.037839 2.431902 0.469608 -2.489388 -339.356064 -27.253602 2.790045 -0.000004 -0.000011 -18.200195 332.711246 51.754454 27.244380 -0.000004 0.000005 -16.279898 13.522117 18.275112 -9.389558 -1.987999 -0.073498 -2.712997 -102.724481 -43.879755 -114.281475 -0.000010 -0.000004 -19.547794 -1440.560771 147.337480 -328.820251 0.000001 0.000009 -14.881199 2028.735572 107.904783 -605.344585
-40.946304 -54.347893 42.438606 4571.840560 3.572535 1.031019 -0.780005 1.005798 5.403099 -31.342266 2.422711 8.707692 0.000003 -0.000003 4.236794 4.651164 -5.017985 -0.658389 -0.000003 0.000013 9.874398 41.605766 -5.360593 -11.272421 -0.000000 0.000007 2.173895 3.157472 4.090586 6.679136 2.681602 -0.377597 5.432502 -27.155837 12.114873 5.851946 5.161502 0.000007 0.000004 190.480725 -108.900160 128.123776 -0.000002 0.000009 -10.869100 -118.643132 -28.039385 -133.342983 0.000006 0.000012 -13.344801 -7.872308 -0.893034 23.888481 -2.381907 -1.419593 6.136590 -12.658734 -12.266692 20.514277 -4.550507 -0.000006 0.000021 -1210.976257 -499.966241 -385.609531 0.000002 -0.000003 -11.106504 704.738645 -33.553639 709.652283 -0.000005 0.000001 -12.874282 -308.379708 21.070666 -58.055822 2.431893 0.469601 -2.489397 -339.385953 -27.233737 2.812191 0.000000 -0.000008 -18.200203 333.083874 51.841201 26.960671 0.000001 0.000000 -16.279900 13.445909 18.349291 -9.608710 -1.988004 -0.073500 -2.713002 -102.628783 -43.921333 -114.212449 -0.000001 0.000000 -19.547798 -1440.452363 147.267498 -328.870740 -0.000003 -0.000000 -14.881189 2028.679619 107.895624 -605.290927
-40.948906 -54.364296 42.439404 4571.839249 3.573055 1.079772 -0.779993 1.005808 5.403099 -31.372087 2.434304 8.658785 0.000003 -0.000006 4.236799 4.694066 -5.019124 -0.658781 0.000006 0.000007 9.874409 41.704957 -5.358825 -11.286275 0.000002 0.000002 2.173895 3.125906 4.113192 6.668050 2.681599 -0.377595 5.432500 -27.092499 12.009667 5.771227 5.161496 -0.000008 0.000005 189.777981 -109.371273 127.584942 0.000013 -0.000003 -10.869105 -118.545146 -28.309131 -133.474464 -0.000006 -0.000004 -13.344806 -8.480704 -0.872110 23.710121 -2.381901 -1.419601 6.136602 -12.766274 -12.437517 20.716327 -4.550507 0.000002 0.000002 -1210.809381 -499.751609 -385.838916 0.000000 -0.000002 -11.106503 704.916066 -33.569307 709.680970 0.000004 0.000004 -12.874292 -308.358534 20.987554 -58.117492 2.431903 0.469603 -2.489397 -339.389969 -27.245070 2.808037 0.000003 -0.000005 -18.200201 333.171027 51.867306 26.872430 -0.000004 -0.000001 -16.279898 13.426181 18.346086 -9.606555 -1.987998 -0.073498 -2.713000 -102.596347 -43.903254 -114.193858 -0.000002 0.000007 -19.547791 -1440.255325 147.290735 -329.102201 -0.000005 0.000008 -14.881201 2028.193091 107.797980 -604.593865
